<svg width="99" height="51" viewBox="0 0 99 51" fill="none" xmlns="http://www.w3.org/2000/svg">
<path d="M92.7282 10.8016C95.711 10.8016 98.129 8.38358 98.129 5.4008C98.129 2.41802 95.711 0 92.7282 0C89.7454 0 87.3274 2.41802 87.3274 5.4008C87.3274 8.38358 89.7454 10.8016 92.7282 10.8016Z" fill="#EEEEEE"/>
<path d="M0 45.2023V16.9585C0 13.8404 1.73786 12.0762 4.7035 12.0762C7.66914 12.0762 9.38059 13.8404 9.38059 16.9585V45.2023C9.38059 48.3203 7.66794 50.0846 4.7035 50.0846C1.73906 50.0846 0 48.3203 0 45.2023Z" fill="#EEEEEE"/>
<path d="M67.935 44.6898L58.7848 19.5388C58.504 18.7203 58.3503 17.8514 58.3503 16.9057C58.3503 14.2221 60.3438 12.381 63.3095 12.381C65.9163 12.381 67.4249 13.5572 68.1654 16.1387L75.6293 40.6512H75.8333L83.2204 16.0115C83.9357 13.5067 85.3928 12.3822 87.8975 12.3822C90.7599 12.3822 92.7282 14.1464 92.7282 16.7532C92.7282 17.6222 92.5746 18.4143 92.2686 19.2328L83.0416 44.691C81.6362 48.6528 79.3102 50.3906 75.5009 50.3906C71.6915 50.3906 69.3668 48.6528 67.935 44.691V44.6898Z" fill="#EEEEEE"/>
<path d="M62.0036 43.1007C61.7348 42.3554 60.9559 41.9174 60.1818 42.0902C59.5973 42.221 58.984 42.2882 58.3419 42.2882C53.0755 42.2882 49.6766 37.8392 49.6766 30.8373C49.6766 26.5863 50.9272 23.281 53.0755 21.3331C53.5652 20.8891 53.7248 20.187 53.4788 19.5749L51.4685 14.5665C51.1228 13.7048 50.1111 13.3231 49.2829 13.7432C43.4969 16.6776 40.1172 22.6989 40.1172 30.8373C40.1172 42.5931 47.1466 49.9046 58.3419 49.9046C59.7521 49.9046 61.0975 49.7869 62.3697 49.5589C63.3334 49.3861 63.9083 48.3851 63.5759 47.4634L62.0036 43.1007V43.1007Z" fill="#EEEEEE"/>
<path d="M19.9997 12.6379H17.3341C15.7151 12.6379 14.4021 13.9509 14.4021 15.5699V20.2038H18.7731C24.7032 20.2038 28.1537 23.9616 28.1537 30.8878C28.1537 38.2497 24.882 41.9558 18.7731 41.9558H14.4021V46.5897C14.4021 48.2087 15.7151 49.5217 17.3341 49.5217H19.9997C31.1182 49.5217 37.6879 42.6459 37.6879 30.8626C37.6879 19.0792 31.1446 12.6379 19.9997 12.6379V12.6379Z" fill="#EEEEEE"/>
</svg>
